<mxfile host="65bd71144e">
    <diagram id="Rhxe3BixDLQJ_bjV6roR" name="Page-1">
        <mxGraphModel dx="1376" dy="607" grid="1" gridSize="10" guides="1" tooltips="1" connect="1" arrows="1" fold="1" page="1" pageScale="1" pageWidth="827" pageHeight="1169" math="0" shadow="0">
            <root>
                <mxCell id="0"/>
                <mxCell id="1" parent="0"/>
                <mxCell id="5" value="Stop" style="rounded=1;whiteSpace=wrap;html=1;" vertex="1" parent="1">
                    <mxGeometry x="340" y="660" width="120" height="35" as="geometry"/>
                </mxCell>
                <mxCell id="14" value="" style="edgeStyle=none;html=1;" edge="1" parent="1" source="6" target="8">
                    <mxGeometry relative="1" as="geometry"/>
                </mxCell>
                <mxCell id="6" value="Start" style="rounded=1;whiteSpace=wrap;html=1;" vertex="1" parent="1">
                    <mxGeometry x="340" y="10" width="120" height="30" as="geometry"/>
                </mxCell>
                <mxCell id="21" value="" style="edgeStyle=none;html=1;" edge="1" parent="1" source="7" target="10">
                    <mxGeometry relative="1" as="geometry"/>
                </mxCell>
                <mxCell id="7" value="Eing/Var Namen" style="shape=parallelogram;perimeter=parallelogramPerimeter;whiteSpace=wrap;html=1;fixedSize=1;" vertex="1" parent="1">
                    <mxGeometry x="320" y="180" width="160" height="50" as="geometry"/>
                </mxCell>
                <mxCell id="20" value="" style="edgeStyle=none;html=1;" edge="1" parent="1" source="8" target="7">
                    <mxGeometry relative="1" as="geometry"/>
                </mxCell>
                <mxCell id="8" value="Variablen für&amp;nbsp;&lt;br&gt;Name +Alter" style="rounded=0;whiteSpace=wrap;html=1;" vertex="1" parent="1">
                    <mxGeometry x="340" y="80" width="120" height="60" as="geometry"/>
                </mxCell>
                <mxCell id="18" value="" style="edgeStyle=none;html=1;" edge="1" parent="1" source="9" target="11">
                    <mxGeometry relative="1" as="geometry"/>
                </mxCell>
                <mxCell id="9" value="Konvert. Ziffer-&lt;br&gt;Zahl / Var" style="rounded=0;whiteSpace=wrap;html=1;" vertex="1" parent="1">
                    <mxGeometry x="340" y="370" width="120" height="60" as="geometry"/>
                </mxCell>
                <mxCell id="19" value="" style="edgeStyle=none;html=1;" edge="1" parent="1" source="10" target="9">
                    <mxGeometry relative="1" as="geometry"/>
                </mxCell>
                <mxCell id="10" value="Eingabe Ziffer" style="shape=parallelogram;perimeter=parallelogramPerimeter;whiteSpace=wrap;html=1;fixedSize=1;" vertex="1" parent="1">
                    <mxGeometry x="340" y="270" width="120" height="60" as="geometry"/>
                </mxCell>
                <mxCell id="17" value="" style="edgeStyle=none;html=1;" edge="1" parent="1" source="11" target="12">
                    <mxGeometry relative="1" as="geometry"/>
                </mxCell>
                <mxCell id="11" value="Auswahl des Getränks" style="shape=process;whiteSpace=wrap;html=1;backgroundOutline=1;" vertex="1" parent="1">
                    <mxGeometry x="340" y="470" width="120" height="60" as="geometry"/>
                </mxCell>
                <mxCell id="16" value="" style="edgeStyle=none;html=1;" edge="1" parent="1" source="12" target="5">
                    <mxGeometry relative="1" as="geometry"/>
                </mxCell>
                <mxCell id="12" value="Ausgabe der Getränks" style="shape=parallelogram;perimeter=parallelogramPerimeter;whiteSpace=wrap;html=1;fixedSize=1;" vertex="1" parent="1">
                    <mxGeometry x="340" y="570" width="120" height="60" as="geometry"/>
                </mxCell>
            </root>
        </mxGraphModel>
    </diagram>
    <diagram id="0yNM22q3vWLsl4Vowmo1" name="Page-2">
        <mxGraphModel dx="329" dy="607" grid="1" gridSize="10" guides="1" tooltips="1" connect="1" arrows="1" fold="1" page="1" pageScale="1" pageWidth="827" pageHeight="1169" math="0" shadow="0">
            <root>
                <mxCell id="0"/>
                <mxCell id="1" parent="0"/>
                <mxCell id="XTZ0TsXO64X7iMNeVGoz-1" value="Stop" style="rounded=1;whiteSpace=wrap;html=1;" vertex="1" parent="1">
                    <mxGeometry x="340" y="710" width="120" height="35" as="geometry"/>
                </mxCell>
                <mxCell id="XTZ0TsXO64X7iMNeVGoz-2" value="" style="edgeStyle=none;html=1;" edge="1" source="XTZ0TsXO64X7iMNeVGoz-3" target="XTZ0TsXO64X7iMNeVGoz-7" parent="1">
                    <mxGeometry relative="1" as="geometry"/>
                </mxCell>
                <mxCell id="XTZ0TsXO64X7iMNeVGoz-3" value="Start" style="rounded=1;whiteSpace=wrap;html=1;" vertex="1" parent="1">
                    <mxGeometry x="340" y="60" width="120" height="30" as="geometry"/>
                </mxCell>
                <mxCell id="XTZ0TsXO64X7iMNeVGoz-4" value="" style="edgeStyle=none;html=1;" edge="1" source="XTZ0TsXO64X7iMNeVGoz-5" target="XTZ0TsXO64X7iMNeVGoz-11" parent="1">
                    <mxGeometry relative="1" as="geometry"/>
                </mxCell>
                <mxCell id="XTZ0TsXO64X7iMNeVGoz-5" value="Eing/Var Namen" style="shape=parallelogram;perimeter=parallelogramPerimeter;whiteSpace=wrap;html=1;fixedSize=1;" vertex="1" parent="1">
                    <mxGeometry x="320" y="230" width="160" height="50" as="geometry"/>
                </mxCell>
                <mxCell id="XTZ0TsXO64X7iMNeVGoz-6" value="" style="edgeStyle=none;html=1;" edge="1" source="XTZ0TsXO64X7iMNeVGoz-7" target="XTZ0TsXO64X7iMNeVGoz-5" parent="1">
                    <mxGeometry relative="1" as="geometry"/>
                </mxCell>
                <mxCell id="XTZ0TsXO64X7iMNeVGoz-7" value="Variablen für&amp;nbsp;&lt;br&gt;Name +Alter" style="rounded=0;whiteSpace=wrap;html=1;" vertex="1" parent="1">
                    <mxGeometry x="340" y="130" width="120" height="60" as="geometry"/>
                </mxCell>
                <mxCell id="XTZ0TsXO64X7iMNeVGoz-8" value="" style="edgeStyle=none;html=1;" edge="1" source="XTZ0TsXO64X7iMNeVGoz-9" target="XTZ0TsXO64X7iMNeVGoz-13" parent="1">
                    <mxGeometry relative="1" as="geometry"/>
                </mxCell>
                <mxCell id="XTZ0TsXO64X7iMNeVGoz-9" value="Konvert. Ziffer-&lt;br&gt;Zahl / Var" style="rounded=0;whiteSpace=wrap;html=1;" vertex="1" parent="1">
                    <mxGeometry x="340" y="420" width="120" height="60" as="geometry"/>
                </mxCell>
                <mxCell id="XTZ0TsXO64X7iMNeVGoz-10" value="" style="edgeStyle=none;html=1;" edge="1" source="XTZ0TsXO64X7iMNeVGoz-11" target="XTZ0TsXO64X7iMNeVGoz-9" parent="1">
                    <mxGeometry relative="1" as="geometry"/>
                </mxCell>
                <mxCell id="XTZ0TsXO64X7iMNeVGoz-11" value="Eingabe Ziffer" style="shape=parallelogram;perimeter=parallelogramPerimeter;whiteSpace=wrap;html=1;fixedSize=1;" vertex="1" parent="1">
                    <mxGeometry x="340" y="320" width="120" height="60" as="geometry"/>
                </mxCell>
                <mxCell id="XTZ0TsXO64X7iMNeVGoz-12" value="" style="edgeStyle=none;html=1;" edge="1" source="XTZ0TsXO64X7iMNeVGoz-13" target="XTZ0TsXO64X7iMNeVGoz-15" parent="1">
                    <mxGeometry relative="1" as="geometry"/>
                </mxCell>
                <mxCell id="XTZ0TsXO64X7iMNeVGoz-13" value="Auswahl des Getränks" style="shape=process;whiteSpace=wrap;html=1;backgroundOutline=1;" vertex="1" parent="1">
                    <mxGeometry x="340" y="520" width="120" height="60" as="geometry"/>
                </mxCell>
                <mxCell id="XTZ0TsXO64X7iMNeVGoz-14" value="" style="edgeStyle=none;html=1;" edge="1" source="XTZ0TsXO64X7iMNeVGoz-15" target="XTZ0TsXO64X7iMNeVGoz-1" parent="1">
                    <mxGeometry relative="1" as="geometry"/>
                </mxCell>
                <mxCell id="XTZ0TsXO64X7iMNeVGoz-15" value="Ausgabe der Getränks" style="shape=parallelogram;perimeter=parallelogramPerimeter;whiteSpace=wrap;html=1;fixedSize=1;" vertex="1" parent="1">
                    <mxGeometry x="340" y="620" width="120" height="60" as="geometry"/>
                </mxCell>
            </root>
        </mxGraphModel>
    </diagram>
</mxfile>